<svg id="svg" version="1.1" xmlns="http://www.w3.org/2000/svg" xmlns:xlink="http://www.w3.org/1999/xlink" width="400" height="266.6666666666667" viewBox="0, 0, 400,266.6666666666667"><g id="svgg"><path id="path0" d="M191.467 4.435 C 169.915 5.690,147.756 13.151,128.819 25.528 C 108.439 38.847,90.269 60.262,81.469 81.333 C 81.071 82.287,80.514 83.577,80.232 84.200 C 70.845 104.965,67.978 134.481,72.935 159.333 C 82.151 205.535,116.104 243.299,161.200 257.507 C 223.679 277.191,291.175 246.879,318.345 186.933 C 331.512 157.883,333.240 123.388,323.054 92.912 C 306.928 44.658,265.807 11.481,214.000 4.925 C 210.652 4.501,195.854 4.179,191.467 4.435 M205.867 5.331 C 211.818 5.623,216.409 6.120,221.897 7.068 C 230.263 8.513,230.891 8.713,235.023 11.242 C 251.136 21.106,261.373 31.918,264.936 42.834 C 265.930 45.880,265.935 45.867,263.800 45.865 C 262.810 45.864,261.100 45.982,260.000 46.127 C 258.240 46.359,252.453 46.968,248.705 47.315 C 247.992 47.381,247.332 47.518,247.238 47.620 C 247.039 47.835,251.614 47.629,259.733 47.058 C 266.675 46.570,276.724 46.217,278.477 46.400 C 279.754 46.533,280.166 46.889,280.687 48.309 C 280.776 48.552,281.078 48.811,281.358 48.884 C 281.638 48.957,281.867 49.208,281.867 49.442 C 281.867 49.675,282.047 49.867,282.267 49.867 C 282.530 49.867,282.667 50.130,282.667 50.634 C 282.667 51.056,282.847 51.551,283.067 51.733 C 283.287 51.916,283.467 52.235,283.467 52.443 C 283.467 52.651,284.067 53.446,284.800 54.210 C 285.533 54.975,286.136 55.840,286.139 56.133 C 286.142 56.427,286.380 56.967,286.667 57.333 C 286.953 57.700,287.191 58.150,287.194 58.333 C 287.197 58.517,287.380 58.667,287.600 58.667 C 287.853 58.667,288.000 58.922,288.000 59.362 C 288.000 59.785,288.260 60.261,288.667 60.581 C 289.033 60.869,289.333 61.322,289.333 61.587 C 289.333 61.851,289.513 62.217,289.733 62.400 C 289.953 62.583,290.133 62.936,290.133 63.186 C 290.133 63.436,290.421 63.911,290.773 64.241 C 291.175 64.619,291.480 65.290,291.594 66.051 C 291.714 66.851,291.926 67.301,292.221 67.380 C 292.621 67.487,293.867 69.662,293.867 70.254 C 293.867 70.384,294.026 70.681,294.221 70.912 C 294.623 71.391,295.200 73.256,295.200 74.079 C 295.200 74.443,295.399 74.658,295.788 74.715 C 296.231 74.779,296.446 75.076,296.655 75.915 C 296.808 76.528,297.023 77.118,297.133 77.226 C 297.243 77.334,297.333 77.695,297.333 78.029 C 297.333 78.362,297.453 78.709,297.600 78.800 C 297.747 78.891,297.867 79.161,297.867 79.401 C 297.867 79.641,298.185 80.170,298.574 80.576 C 299.143 81.170,299.219 81.389,298.962 81.699 C 298.707 82.006,298.776 82.363,299.296 83.441 C 299.656 84.187,299.888 85.038,299.811 85.332 C 299.685 85.812,299.801 85.867,300.947 85.867 C 301.648 85.867,302.140 85.949,302.039 86.050 C 301.938 86.151,297.628 86.326,292.461 86.440 C 287.294 86.553,281.087 86.843,278.667 87.083 C 276.247 87.323,273.427 87.597,272.400 87.693 C 271.373 87.788,270.662 87.951,270.819 88.053 C 270.977 88.156,271.877 88.128,272.819 87.992 C 281.493 86.738,303.271 87.693,310.400 89.641 C 313.154 90.393,315.775 91.214,316.330 91.497 C 316.584 91.627,316.944 91.734,317.130 91.735 C 317.315 91.736,317.795 91.908,318.197 92.118 C 318.599 92.327,319.197 92.537,319.525 92.583 C 319.853 92.629,320.315 92.847,320.551 93.067 C 320.787 93.287,321.181 93.587,321.426 93.733 C 322.043 94.102,323.956 100.005,324.797 104.133 C 325.061 105.427,325.691 108.666,326.275 111.733 C 327.166 116.415,327.617 120.946,328.008 129.147 C 328.435 138.123,328.526 137.718,325.653 139.669 C 324.377 140.536,323.153 141.326,322.933 141.425 C 322.713 141.524,322.113 141.862,321.600 142.177 C 320.524 142.838,316.118 145.067,315.889 145.067 C 315.804 145.067,314.984 145.407,314.067 145.824 C 311.559 146.963,310.998 147.187,308.533 148.040 C 307.287 148.471,306.027 148.926,305.733 149.050 C 305.440 149.173,303.820 149.660,302.133 150.131 C 300.447 150.602,298.505 151.155,297.818 151.360 C 295.901 151.932,290.205 153.346,288.267 153.732 C 283.502 154.679,280.330 155.475,281.867 155.337 C 285.794 154.987,295.827 152.968,303.867 150.911 C 304.453 150.761,305.593 150.469,306.400 150.262 C 307.207 150.055,308.017 149.881,308.200 149.876 C 308.614 149.864,308.677 154.813,308.267 155.067 C 308.120 155.157,308.000 156.040,308.000 157.029 C 308.000 158.018,307.889 158.941,307.753 159.080 C 307.617 159.219,307.428 160.653,307.334 162.267 C 307.240 163.880,307.063 165.440,306.942 165.733 C 306.820 166.027,306.529 166.705,306.294 167.240 C 306.059 167.776,305.867 168.759,305.867 169.425 C 305.867 170.090,305.747 170.709,305.600 170.800 C 305.453 170.891,305.326 171.468,305.318 172.082 C 305.302 173.231,304.510 176.646,304.183 176.972 C 304.082 177.073,304.000 177.488,304.000 177.895 C 304.000 178.302,303.894 178.701,303.764 178.781 C 303.635 178.861,303.444 179.618,303.340 180.463 C 303.236 181.308,302.995 182.180,302.805 182.400 C 302.615 182.620,302.373 183.220,302.268 183.733 C 302.088 184.613,301.576 185.984,301.057 186.977 C 300.929 187.221,300.743 188.033,300.644 188.783 C 300.544 189.532,300.359 190.210,300.232 190.288 C 300.104 190.367,300.000 190.760,300.000 191.163 C 300.000 192.097,299.432 193.329,299.000 193.331 C 298.817 193.332,298.667 193.453,298.667 193.600 C 298.667 193.747,298.817 193.872,299.000 193.879 C 300.371 193.932,293.993 195.516,284.933 197.374 C 272.575 199.909,268.555 200.787,269.867 200.665 C 272.392 200.430,274.666 200.094,278.800 199.342 C 285.936 198.046,285.913 198.049,286.186 198.443 C 286.871 199.435,285.636 210.624,284.527 213.467 C 284.412 213.760,283.938 215.130,283.472 216.511 C 281.872 221.261,277.542 228.804,273.733 233.478 C 266.697 242.111,262.081 246.330,256.794 248.957 C 238.134 258.229,216.798 262.914,196.267 262.248 C 189.498 262.028,188.564 261.730,192.667 261.097 C 215.464 257.581,233.736 240.687,247.809 210.114 C 250.703 203.827,250.701 203.891,247.937 204.529 C 246.949 204.758,241.123 205.733,238.800 206.059 C 238.360 206.120,236.380 206.411,234.400 206.704 C 232.420 206.997,229.600 207.410,228.133 207.622 C 226.667 207.833,224.267 208.184,222.800 208.401 C 221.333 208.619,217.853 209.098,215.067 209.466 C 212.280 209.834,209.160 210.253,208.133 210.396 C 207.107 210.539,204.707 210.840,202.800 211.064 C 200.893 211.288,198.493 211.584,197.467 211.721 C 189.108 212.837,190.291 213.192,186.415 208.400 C 175.301 194.657,165.885 179.786,160.329 167.200 C 151.147 146.401,149.549 135.740,151.755 110.000 C 153.279 92.213,159.619 71.590,167.254 59.584 L 167.943 58.501 172.038 57.756 C 174.290 57.346,177.033 56.848,178.133 56.649 C 182.807 55.806,196.633 53.551,200.933 52.930 C 202.547 52.697,204.587 52.396,205.467 52.260 C 207.666 51.921,212.254 51.314,216.400 50.813 C 218.307 50.582,220.647 50.282,221.600 50.145 C 222.553 50.008,224.653 49.756,226.267 49.585 C 230.211 49.167,230.237 49.453,225.834 44.753 C 224.277 43.090,222.597 41.271,222.101 40.711 C 220.747 39.181,213.769 32.828,211.269 30.849 C 195.547 18.404,179.321 12.861,160.155 13.388 C 157.292 13.467,155.482 13.420,155.533 13.268 C 155.641 12.943,160.784 11.124,164.400 10.131 C 176.345 6.851,186.513 5.373,198.933 5.113 C 199.887 5.093,203.007 5.191,205.867 5.331 M134.600 36.701 C 135.466 36.933,135.407 37.078,133.180 40.170 C 112.965 68.237,105.003 107.489,111.173 148.667 C 111.623 151.668,112.132 154.367,113.185 159.333 C 116.429 174.640,123.345 192.922,130.736 205.733 C 135.370 213.764,142.037 223.453,146.150 228.133 C 146.537 228.573,147.852 230.073,149.072 231.467 C 151.718 234.488,158.416 241.144,160.879 243.200 C 162.991 244.963,163.010 245.059,161.400 245.845 C 155.848 248.554,142.535 249.103,138.627 246.784 C 127.822 240.372,107.352 220.511,98.929 208.267 C 88.299 192.815,82.195 179.009,78.414 161.867 C 76.220 151.924,75.257 132.334,76.506 123.067 C 77.706 114.166,78.309 110.786,79.908 104.000 C 81.686 96.452,85.859 84.226,89.055 77.200 C 89.522 76.173,90.280 74.493,90.739 73.467 C 91.630 71.477,95.525 63.775,96.876 61.333 C 97.322 60.527,97.985 59.327,98.349 58.667 C 99.439 56.688,103.245 50.435,104.944 47.832 C 109.192 41.325,126.963 34.655,134.600 36.701 M293.608 46.067 C 294.082 46.617,294.966 47.607,295.571 48.267 C 296.505 49.284,298.134 51.218,299.388 52.796 C 299.564 53.018,300.329 53.980,301.086 54.933 C 301.844 55.887,302.589 56.937,302.741 57.267 C 302.894 57.597,303.094 57.867,303.185 57.867 C 303.613 57.867,304.318 59.522,304.018 59.822 C 303.684 60.156,303.111 59.560,303.367 59.146 C 303.439 59.029,303.311 58.933,303.082 58.933 C 302.854 58.933,302.667 58.775,302.667 58.581 C 302.667 58.388,302.397 57.993,302.067 57.704 C 301.737 57.415,301.047 56.658,300.533 56.022 C 299.194 54.362,296.607 51.733,296.313 51.733 C 296.175 51.733,295.993 51.469,295.908 51.145 C 295.824 50.821,295.688 50.624,295.606 50.705 C 295.421 50.890,293.600 49.199,293.600 48.843 C 293.600 48.700,293.354 48.648,293.053 48.726 C 292.575 48.851,292.528 48.780,292.683 48.165 C 292.822 47.610,292.776 47.493,292.464 47.612 C 292.242 47.697,291.999 47.582,291.909 47.349 C 291.822 47.120,291.580 46.933,291.372 46.933 C 290.829 46.933,290.003 45.625,290.457 45.483 C 290.646 45.424,290.980 45.316,291.200 45.242 C 292.196 44.910,292.783 45.111,293.608 46.067 M242.336 48.189 C 242.668 48.252,243.148 48.250,243.403 48.183 C 243.658 48.116,243.387 48.064,242.800 48.067 C 242.213 48.070,242.005 48.125,242.336 48.189 M304.800 59.988 C 304.800 60.128,305.280 60.928,305.867 61.766 C 306.453 62.603,306.926 63.419,306.918 63.578 C 306.909 63.737,306.759 63.641,306.584 63.366 C 306.410 63.090,305.761 62.262,305.142 61.525 C 304.104 60.289,303.920 59.733,304.549 59.733 C 304.687 59.733,304.800 59.848,304.800 59.988 M279.467 155.467 C 279.467 155.613,279.647 155.733,279.867 155.733 C 280.087 155.733,280.267 155.613,280.267 155.467 C 280.267 155.320,280.087 155.200,279.867 155.200 C 279.647 155.200,279.467 155.320,279.467 155.467 M266.667 201.067 L 265.733 201.263 266.851 201.298 C 267.466 201.318,268.043 201.213,268.133 201.067 C 268.315 200.773,268.061 200.773,266.667 201.067 " stroke="none" fill="#1e3759" fill-rule="evenodd"></path><path id="path1" d="M191.333 5.739 C 180.212 6.511,170.529 8.388,159.733 11.866 C 155.376 13.270,155.433 13.414,160.267 13.204 C 162.997 13.084,166.822 13.167,171.534 13.448 C 178.701 13.875,179.696 13.848,182.400 13.161 C 184.311 12.676,193.432 11.271,196.000 11.067 C 197.100 10.979,198.540 10.853,199.200 10.787 C 207.261 9.977,223.144 10.907,231.600 12.683 C 233.047 12.987,235.087 13.255,235.248 13.162 C 235.348 13.105,235.505 13.180,235.597 13.329 C 235.689 13.478,236.005 13.600,236.298 13.600 C 237.060 13.600,236.765 13.267,234.451 11.509 C 232.011 9.655,230.366 8.999,225.888 8.098 C 213.957 5.696,202.869 4.939,191.333 5.739 M123.733 37.781 C 119.672 38.357,110.209 42.638,107.116 45.298 C 105.760 46.464,98.286 58.894,94.508 66.267 C 86.274 82.332,81.209 97.109,78.144 114.000 C 78.011 114.733,77.712 116.773,77.481 118.533 C 77.249 120.293,76.914 122.693,76.736 123.867 C 76.280 126.876,76.286 145.430,76.744 148.800 C 76.933 150.193,77.271 152.713,77.495 154.400 C 77.719 156.087,78.005 157.887,78.131 158.400 C 78.257 158.913,78.556 160.353,78.796 161.600 C 79.036 162.847,79.333 164.227,79.455 164.667 C 79.578 165.107,79.882 166.307,80.133 167.333 C 80.383 168.360,80.682 169.440,80.798 169.733 C 80.913 170.027,81.214 171.047,81.467 172.000 C 81.719 172.953,82.020 173.973,82.135 174.267 C 82.250 174.560,82.546 175.400,82.793 176.133 C 83.273 177.560,83.438 177.985,84.106 179.507 C 84.341 180.042,84.533 180.648,84.533 180.854 C 84.533 181.059,84.632 181.341,84.752 181.480 C 84.872 181.619,85.313 182.573,85.732 183.600 C 86.877 186.408,89.833 192.766,90.133 193.067 C 90.207 193.140,90.505 193.680,90.795 194.267 C 91.086 194.853,91.836 196.145,92.462 197.136 C 93.088 198.128,93.600 199.008,93.600 199.093 C 93.600 199.257,96.352 203.689,97.144 204.800 C 97.406 205.167,98.594 206.847,99.786 208.533 C 107.743 219.800,120.307 232.769,130.800 240.547 C 131.680 241.200,132.547 241.872,132.726 242.041 C 136.421 245.520,140.838 247.500,144.750 247.430 C 145.877 247.410,146.500 247.343,146.133 247.282 C 145.767 247.220,145.107 247.011,144.667 246.817 C 144.227 246.623,143.687 246.400,143.467 246.320 C 143.206 246.226,143.276 246.168,143.667 246.154 C 143.997 246.143,144.267 246.009,144.267 245.857 C 144.267 245.704,143.941 245.614,143.543 245.657 C 142.992 245.715,142.799 245.606,142.736 245.200 C 142.456 243.401,142.047 242.667,141.323 242.667 C 140.925 242.667,140.444 242.480,140.254 242.251 C 139.849 241.763,145.175 241.973,145.802 242.470 C 146.264 242.836,158.226 243.033,158.003 242.671 C 157.911 242.522,157.659 242.400,157.444 242.400 C 157.229 242.400,156.939 242.100,156.800 241.733 C 156.507 240.964,156.300 240.917,155.584 241.458 C 154.997 241.902,154.667 241.970,154.667 241.645 C 154.667 241.523,154.968 241.262,155.336 241.065 L 156.005 240.707 153.802 238.459 C 152.591 237.222,151.346 235.953,151.036 235.639 C 149.930 234.517,145.419 229.150,143.104 226.203 C 140.565 222.970,140.101 222.326,137.384 218.267 C 136.403 216.800,135.539 215.540,135.464 215.467 C 135.389 215.393,135.092 214.883,134.803 214.333 C 134.515 213.783,134.200 213.333,134.104 213.333 C 134.008 213.333,133.855 213.123,133.765 212.867 C 133.674 212.610,133.117 211.620,132.527 210.667 C 131.936 209.713,131.213 208.453,130.919 207.867 C 130.624 207.280,130.093 206.320,129.737 205.733 C 129.381 205.147,129.085 204.457,129.078 204.200 C 129.072 203.943,128.966 203.733,128.843 203.733 C 128.610 203.733,126.933 200.235,126.933 199.747 C 126.933 199.593,126.813 199.467,126.667 199.467 C 126.520 199.467,126.400 199.287,126.400 199.067 C 126.400 198.847,126.272 198.667,126.115 198.667 C 125.952 198.667,125.903 198.439,126.000 198.133 C 126.093 197.840,126.070 197.600,125.950 197.600 C 125.829 197.600,125.565 197.210,125.363 196.733 C 125.161 196.257,124.652 195.130,124.231 194.229 C 123.811 193.328,123.467 192.521,123.467 192.436 C 123.467 192.352,123.167 191.627,122.800 190.825 C 122.433 190.023,122.133 189.180,122.133 188.950 C 122.133 188.721,122.013 188.533,121.867 188.533 C 121.720 188.533,121.600 188.367,121.600 188.164 C 121.600 187.961,121.421 187.451,121.202 187.030 C 120.983 186.610,120.803 186.081,120.802 185.853 C 120.801 185.626,120.700 185.326,120.577 185.187 C 120.455 185.047,120.146 184.333,119.890 183.600 C 119.634 182.867,119.325 182.027,119.202 181.733 C 119.079 181.440,118.772 180.540,118.520 179.733 C 118.267 178.927,117.967 178.027,117.853 177.733 C 117.739 177.440,117.439 176.540,117.186 175.733 C 116.934 174.927,116.638 174.027,116.530 173.733 C 116.111 172.599,115.467 170.199,115.467 169.773 C 115.467 169.527,115.351 169.118,115.211 168.863 C 114.698 167.936,113.195 161.506,112.016 155.200 C 111.701 153.513,111.341 151.653,111.215 151.067 C 111.090 150.480,110.789 148.500,110.547 146.667 C 110.304 144.833,109.993 142.553,109.854 141.600 C 108.497 132.267,108.505 107.297,109.867 101.600 C 109.989 101.087,110.223 99.467,110.385 98.000 C 110.827 94.017,110.944 93.252,111.200 92.667 C 111.328 92.373,111.511 91.204,111.606 90.068 C 111.701 88.933,111.888 87.936,112.023 87.853 C 112.157 87.770,112.267 87.229,112.267 86.651 C 112.267 86.073,112.394 85.600,112.549 85.600 C 112.704 85.600,112.767 85.496,112.689 85.369 C 112.610 85.242,112.736 84.312,112.968 83.303 C 113.199 82.293,113.527 80.727,113.695 79.822 C 113.863 78.917,114.091 78.087,114.200 77.977 C 114.310 77.868,114.400 77.563,114.400 77.300 C 114.400 76.104,118.429 64.658,120.625 59.613 C 121.851 56.797,126.139 48.518,127.567 46.211 C 128.392 44.877,129.067 43.664,129.067 43.515 C 129.067 43.366,129.162 43.204,129.278 43.156 C 129.394 43.107,129.778 42.587,130.131 42.000 C 130.872 40.768,132.278 38.887,132.664 38.611 C 133.437 38.059,126.388 37.404,123.733 37.781 M245.600 93.740 C 245.380 93.783,244.360 93.950,243.333 94.112 C 237.187 95.080,226.295 97.156,220.000 98.559 C 218.313 98.935,216.453 99.341,215.867 99.462 C 215.280 99.583,213.900 99.880,212.800 100.124 C 209.080 100.947,207.922 101.105,207.741 100.813 C 207.593 100.574,198.633 102.783,190.400 105.090 C 189.300 105.398,187.380 105.923,186.133 106.258 C 181.236 107.572,164.193 112.567,155.867 115.129 L 151.600 116.442 151.426 117.888 C 150.801 123.096,151.325 136.366,152.400 142.533 C 153.599 149.411,156.744 159.667,158.239 161.575 C 158.489 161.895,161.109 161.924,175.733 161.774 C 200.387 161.520,220.748 160.897,216.267 160.533 C 214.762 160.411,218.433 160.059,230.133 159.204 C 237.525 158.664,243.379 158.132,249.467 157.447 C 251.520 157.216,253.832 156.961,254.605 156.880 C 255.378 156.799,256.075 156.628,256.154 156.500 C 256.233 156.372,256.518 156.267,256.786 156.267 C 257.224 156.267,257.294 155.911,257.467 152.800 C 257.573 150.893,257.766 149.333,257.896 149.333 C 258.027 149.333,258.133 147.713,258.133 145.733 C 258.133 143.511,258.235 142.133,258.400 142.133 C 258.564 142.133,258.667 140.805,258.667 138.682 C 258.667 136.669,258.556 135.163,258.400 135.067 C 258.244 134.971,258.133 133.464,258.133 131.451 C 258.133 128.561,258.068 128.000,257.733 128.000 C 257.398 128.000,257.333 127.439,257.333 124.549 C 257.333 122.651,257.225 121.031,257.093 120.950 C 256.961 120.868,256.769 120.081,256.667 119.200 C 256.564 118.319,256.373 117.532,256.240 117.450 C 256.108 117.369,256.000 116.645,256.000 115.843 C 256.000 114.794,255.888 114.340,255.602 114.230 C 255.382 114.146,255.262 113.982,255.334 113.866 C 255.668 113.325,255.108 110.326,254.650 110.206 C 254.132 110.071,253.876 109.372,253.870 108.082 C 253.868 107.614,253.747 107.157,253.600 107.067 C 253.453 106.976,253.333 106.496,253.333 106.000 C 253.333 105.504,253.213 105.024,253.067 104.933 C 252.920 104.843,252.800 104.428,252.800 104.013 C 252.800 103.587,252.625 103.190,252.400 103.104 C 252.180 103.019,252.000 102.713,252.000 102.424 C 252.000 102.135,251.880 101.824,251.733 101.733 C 251.587 101.643,251.467 101.096,251.467 100.518 C 251.467 99.856,251.343 99.466,251.133 99.465 C 250.704 99.462,250.133 98.233,250.133 97.313 C 250.133 96.920,249.943 96.441,249.711 96.248 C 249.447 96.029,249.329 95.617,249.397 95.152 C 249.478 94.604,249.378 94.365,249.020 94.252 C 248.752 94.167,248.533 93.985,248.533 93.849 C 248.533 93.623,246.573 93.550,245.600 93.740 M248.244 94.838 C 248.512 95.068,247.293 94.898,246.933 94.654 C 246.641 94.457,246.749 94.432,247.333 94.563 C 247.773 94.661,248.183 94.785,248.244 94.838 M208.667 100.267 L 208.133 100.496 208.667 100.488 C 208.960 100.484,209.500 100.384,209.867 100.267 L 210.533 100.053 209.867 100.045 C 209.500 100.041,208.960 100.141,208.667 100.267 M218.737 160.725 C 219.142 160.786,219.742 160.784,220.070 160.721 C 220.398 160.658,220.067 160.608,219.333 160.610 C 218.600 160.612,218.332 160.663,218.737 160.725 M156.812 243.756 C 156.976 244.062,157.175 244.247,157.255 244.168 C 157.474 243.948,157.122 243.200,156.799 243.200 C 156.602 243.200,156.606 243.371,156.812 243.756 " stroke="none" fill="#c29d24" fill-rule="evenodd"></path><path id="path2" d="M0.000 133.333 L 0.000 266.667 200.000 266.667 L 400.000 266.667 400.000 133.333 L 400.000 0.000 200.000 0.000 L 0.000 0.000 0.000 133.333 M212.933 4.492 C 213.960 4.653,215.820 4.917,217.067 5.079 C 226.954 6.369,233.916 8.061,244.400 11.726 C 245.280 12.034,246.240 12.389,246.533 12.516 C 246.827 12.643,247.487 12.897,248.000 13.082 C 248.513 13.266,249.413 13.626,250.000 13.881 C 250.587 14.136,251.811 14.656,252.720 15.037 C 255.819 16.334,263.563 20.356,266.533 22.211 C 278.723 29.823,288.150 37.582,296.415 46.803 C 308.545 60.335,317.699 75.911,323.056 92.133 C 324.594 96.789,325.748 100.555,325.958 101.600 C 326.031 101.967,326.289 103.047,326.531 104.000 C 326.773 104.953,327.079 106.333,327.211 107.067 C 327.344 107.800,327.636 109.410,327.861 110.644 C 330.178 123.353,330.550 139.937,328.778 151.600 C 327.871 157.568,327.690 158.523,326.507 163.600 C 322.256 181.837,313.991 199.041,302.293 214.000 C 301.261 215.320,300.353 216.460,300.275 216.533 C 300.197 216.607,299.417 217.507,298.541 218.533 C 285.676 233.610,268.992 245.727,250.267 253.592 C 248.067 254.516,246.027 255.374,245.733 255.497 C 243.177 256.577,233.857 259.423,230.901 260.027 C 230.112 260.189,229.047 260.416,228.533 260.532 C 227.359 260.799,222.475 261.777,220.533 262.135 C 209.734 264.124,189.980 264.115,179.600 262.117 C 165.985 259.497,157.887 257.218,150.800 254.013 C 150.360 253.814,149.246 253.336,148.325 252.952 C 140.866 249.839,132.365 245.021,123.953 239.138 C 116.517 233.938,105.345 223.386,99.200 215.759 C 96.749 212.718,92.657 207.064,91.019 204.458 C 90.019 202.865,89.020 201.281,88.800 200.938 C 83.871 193.245,77.909 179.563,75.088 169.467 C 74.306 166.666,74.155 166.064,73.455 162.933 C 73.077 161.247,72.661 159.447,72.530 158.933 C 72.399 158.420,72.116 156.860,71.900 155.467 C 71.685 154.073,71.378 152.093,71.219 151.067 C 70.273 144.982,69.802 130.013,70.393 124.818 C 70.536 123.561,70.778 121.273,70.930 119.733 C 71.307 115.916,71.927 111.674,72.527 108.800 C 72.665 108.140,72.977 106.640,73.221 105.467 C 73.783 102.765,74.881 98.431,75.181 97.733 C 75.307 97.440,75.732 96.120,76.125 94.800 C 80.839 78.977,90.222 62.195,101.838 48.810 C 105.716 44.342,112.132 37.966,115.733 35.003 C 116.100 34.701,117.180 33.807,118.133 33.017 C 122.804 29.144,130.866 23.602,136.267 20.550 C 138.011 19.564,147.850 14.667,148.087 14.667 C 148.177 14.667,148.884 14.385,149.659 14.042 C 150.433 13.698,151.487 13.264,152.000 13.077 C 152.513 12.890,153.311 12.572,153.774 12.369 C 154.236 12.166,154.747 12.000,154.911 12.000 C 155.074 12.000,155.416 11.883,155.670 11.739 C 156.328 11.369,162.156 9.458,164.533 8.833 C 172.327 6.786,173.998 6.409,178.133 5.768 C 182.292 5.123,188.739 4.303,190.800 4.158 C 193.693 3.954,211.177 4.218,212.933 4.492 M165.300 66.800 C 165.239 67.535,165.203 67.609,164.589 68.268 C 162.181 70.853,157.519 84.067,154.947 95.600 C 154.137 99.232,153.010 106.889,152.670 111.067 C 152.587 112.093,152.459 113.293,152.387 113.733 C 152.148 115.188,152.494 115.317,154.695 114.592 C 156.784 113.905,160.233 112.830,162.667 112.109 C 163.473 111.870,164.793 111.452,165.600 111.182 C 167.472 110.553,184.786 105.415,187.067 104.811 C 188.413 104.455,194.667 102.685,197.067 101.981 C 198.313 101.616,199.813 101.192,200.400 101.040 C 200.987 100.888,201.878 100.637,202.380 100.481 C 202.882 100.326,204.142 99.982,205.180 99.718 C 208.467 98.881,210.431 98.253,210.270 98.093 C 210.185 98.007,210.405 97.993,210.760 98.060 C 211.114 98.128,211.485 98.052,211.584 97.892 C 211.684 97.731,212.118 97.600,212.549 97.600 C 212.980 97.600,213.333 97.490,213.333 97.356 C 213.333 97.221,213.663 96.991,214.067 96.843 L 214.800 96.575 214.089 96.554 C 213.698 96.543,213.338 96.648,213.289 96.787 C 213.240 96.927,212.674 97.125,212.031 97.227 C 210.712 97.437,210.568 96.963,211.754 96.313 L 212.400 95.960 211.733 96.092 C 211.367 96.164,210.797 96.307,210.467 96.410 C 210.092 96.526,209.867 96.484,209.867 96.298 C 209.867 96.134,210.040 96.000,210.251 96.000 C 210.585 96.000,210.585 95.904,210.252 95.267 C 210.042 94.863,209.869 94.383,209.868 94.200 C 209.867 94.017,209.695 93.867,209.486 93.867 C 209.277 93.867,208.796 93.213,208.418 92.414 C 207.980 91.487,207.466 90.835,206.999 90.612 C 206.511 90.379,206.239 90.019,206.182 89.531 C 206.106 88.872,205.994 88.800,205.049 88.800 C 204.067 88.800,204.000 88.750,204.000 88.019 C 204.000 87.412,203.866 87.218,203.402 87.152 C 202.976 87.091,202.764 86.840,202.668 86.279 C 202.571 85.713,202.344 85.446,201.866 85.334 C 201.500 85.248,201.045 84.856,200.856 84.464 C 200.646 84.028,199.998 83.514,199.189 83.143 C 198.462 82.810,197.867 82.386,197.867 82.202 C 197.867 82.017,197.705 81.867,197.508 81.867 C 197.311 81.867,196.932 81.627,196.667 81.333 C 196.401 81.040,196.023 80.800,195.825 80.800 C 195.624 80.800,195.467 80.517,195.467 80.155 C 195.467 79.659,195.287 79.470,194.694 79.339 C 194.269 79.246,193.865 78.954,193.796 78.691 C 193.710 78.364,193.324 78.167,192.571 78.066 C 191.949 77.982,191.114 77.618,190.649 77.226 C 190.196 76.845,189.535 76.533,189.180 76.533 C 188.777 76.533,188.533 76.379,188.533 76.125 C 188.533 75.900,188.323 75.640,188.067 75.547 C 187.810 75.454,187.180 75.064,186.667 74.681 C 185.387 73.725,183.673 72.950,182.197 72.660 C 181.208 72.466,179.819 71.821,179.590 71.450 C 179.505 71.312,179.101 71.200,178.692 71.200 C 178.284 71.200,177.742 70.971,177.489 70.692 C 177.161 70.329,176.485 70.129,175.126 69.993 C 174.078 69.887,173.037 69.710,172.811 69.598 C 171.709 69.054,170.966 68.815,169.867 68.652 C 169.207 68.553,168.527 68.360,168.356 68.223 C 168.185 68.085,167.705 68.009,167.290 68.053 C 166.664 68.119,166.547 68.041,166.611 67.600 C 166.670 67.196,166.629 67.156,166.441 67.434 C 166.096 67.946,165.620 67.580,165.789 66.933 C 165.867 66.635,165.798 66.400,165.631 66.400 C 165.467 66.400,165.318 66.580,165.300 66.800 M183.345 162.600 C 170.592 162.638,160.054 162.773,159.927 162.900 C 158.829 163.997,171.593 186.667,178.245 195.434 C 178.844 196.223,179.612 197.283,179.952 197.791 C 180.544 198.674,181.505 199.844,182.437 200.817 C 182.677 201.068,183.003 201.497,183.162 201.770 C 183.407 202.192,183.452 202.201,183.459 201.829 C 183.471 201.181,184.274 200.975,184.672 201.519 C 185.029 202.007,187.019 201.260,187.770 200.356 C 187.932 200.160,188.307 200.000,188.603 200.000 C 188.898 200.000,189.668 199.513,190.314 198.919 C 191.204 198.098,191.622 197.880,192.049 198.015 C 192.504 198.160,192.972 197.818,194.524 196.205 C 195.672 195.010,196.750 194.138,197.219 194.021 C 198.251 193.765,199.200 192.852,199.200 192.116 C 199.200 191.696,199.408 191.472,199.917 191.345 C 200.311 191.246,200.960 190.933,201.358 190.649 C 201.756 190.365,202.185 190.133,202.311 190.133 C 202.437 190.133,202.659 189.865,202.803 189.538 C 202.948 189.211,203.349 188.803,203.695 188.633 C 204.040 188.462,204.462 188.040,204.633 187.695 C 204.803 187.349,205.211 186.948,205.538 186.803 C 205.865 186.659,206.133 186.389,206.133 186.205 C 206.133 186.020,207.153 184.838,208.400 183.577 C 209.647 182.316,210.667 181.194,210.667 181.083 C 210.667 180.748,211.483 179.221,211.750 179.056 C 211.888 178.971,212.000 178.669,212.000 178.384 C 212.000 178.062,212.183 177.867,212.483 177.867 C 212.993 177.867,213.765 176.937,214.368 175.600 C 214.567 175.160,214.835 174.592,214.964 174.337 C 215.094 174.082,215.200 173.655,215.200 173.388 C 215.200 173.121,215.376 172.669,215.592 172.384 C 215.807 172.100,215.987 171.597,215.992 171.267 C 215.996 170.915,216.165 170.667,216.400 170.667 C 216.620 170.667,216.800 170.534,216.800 170.372 C 216.800 170.210,217.100 169.720,217.467 169.285 C 217.833 168.849,218.133 168.216,218.133 167.877 C 218.133 167.504,218.327 167.212,218.626 167.133 C 219.008 167.033,219.154 166.655,219.279 165.442 C 219.381 164.460,219.601 163.761,219.871 163.564 C 220.108 163.390,220.271 163.148,220.233 163.024 C 220.195 162.901,220.517 162.724,220.948 162.632 C 221.380 162.539,218.313 162.478,214.133 162.497 C 209.953 162.515,196.099 162.562,183.345 162.600 M184.000 202.267 C 184.000 202.633,184.120 202.933,184.267 202.933 C 184.413 202.933,184.533 202.633,184.533 202.267 C 184.533 201.900,184.413 201.600,184.267 201.600 C 184.120 201.600,184.000 201.900,184.000 202.267 " stroke="none" fill="#f2f2f2" fill-rule="evenodd"></path><path id="path3" d="M198.476 5.264 C 199.325 5.317,200.645 5.317,201.410 5.263 C 202.174 5.209,201.480 5.166,199.867 5.166 C 198.253 5.167,197.628 5.211,198.476 5.264 M190.267 5.489 C 189.973 5.535,188.794 5.649,187.647 5.744 C 186.499 5.839,185.604 5.960,185.658 6.013 C 185.711 6.067,188.090 5.952,190.944 5.758 C 195.034 5.479,195.569 5.405,193.467 5.405 C 192.000 5.406,190.560 5.443,190.267 5.489 M208.533 5.714 C 213.377 6.081,214.015 6.152,218.667 6.837 C 227.984 8.209,231.464 9.239,234.451 11.509 C 236.765 13.267,237.060 13.600,236.298 13.600 C 236.005 13.600,235.689 13.478,235.597 13.329 C 235.505 13.180,235.348 13.105,235.248 13.162 C 235.087 13.255,233.047 12.987,231.600 12.683 C 223.144 10.907,207.261 9.977,199.200 10.787 C 198.540 10.853,197.100 10.979,196.000 11.067 C 193.195 11.290,184.187 12.702,182.267 13.220 C 180.386 13.727,178.094 13.799,171.733 13.551 C 168.471 13.424,167.709 13.441,169.200 13.608 C 182.216 15.065,190.450 17.619,200.169 23.217 C 206.922 27.106,217.596 35.621,222.101 40.711 C 222.597 41.271,224.277 43.090,225.834 44.753 C 227.392 46.416,228.847 48.074,229.067 48.438 C 229.445 49.065,229.566 49.093,231.333 48.969 C 235.770 48.658,245.746 47.717,248.533 47.346 C 249.047 47.278,251.447 47.032,253.867 46.799 C 256.287 46.566,259.070 46.261,260.051 46.121 C 261.033 45.981,262.683 45.867,263.718 45.867 C 265.947 45.867,265.935 45.895,264.936 42.834 C 261.868 33.436,254.223 24.502,241.599 15.562 C 236.589 12.015,231.707 9.144,229.879 8.670 C 223.904 7.122,213.667 5.660,207.467 5.470 L 203.867 5.360 208.533 5.714 M182.000 6.400 L 181.200 6.604 182.000 6.612 C 182.440 6.616,183.400 6.526,184.133 6.412 L 185.467 6.205 184.133 6.201 C 183.400 6.198,182.440 6.288,182.000 6.400 M177.913 6.989 C 177.131 7.131,176.542 7.298,176.604 7.360 C 176.733 7.489,180.875 6.945,181.044 6.777 C 181.231 6.592,179.418 6.715,177.913 6.989 M174.267 7.733 C 173.538 8.047,174.755 8.047,175.733 7.733 C 176.383 7.525,176.380 7.520,175.600 7.512 C 175.160 7.508,174.560 7.607,174.267 7.733 M170.137 8.602 C 168.892 8.908,167.998 9.199,168.150 9.250 C 168.302 9.301,169.621 9.052,171.080 8.696 C 172.539 8.341,173.433 8.049,173.067 8.048 C 172.700 8.047,171.381 8.297,170.137 8.602 M166.267 9.610 C 165.827 9.732,165.007 9.949,164.446 10.093 C 163.221 10.405,162.727 10.802,163.867 10.557 C 165.132 10.286,167.909 9.382,167.467 9.385 C 167.247 9.387,166.707 9.488,166.267 9.610 M159.639 11.601 C 158.193 12.096,156.933 12.587,156.839 12.693 C 156.744 12.798,156.847 12.821,157.068 12.743 C 157.289 12.664,158.667 12.216,160.132 11.747 C 161.596 11.278,162.846 10.843,162.908 10.781 C 163.202 10.487,162.042 10.778,159.639 11.601 M155.644 12.978 C 155.234 13.388,155.528 13.598,156.467 13.564 C 157.094 13.541,157.241 13.484,156.863 13.411 C 156.531 13.347,156.328 13.184,156.412 13.048 C 156.586 12.766,155.917 12.706,155.644 12.978 M161.944 13.265 C 162.941 13.316,164.501 13.316,165.411 13.264 C 166.322 13.212,165.507 13.170,163.600 13.170 C 161.693 13.171,160.948 13.213,161.944 13.265 M127.333 36.717 C 123.266 37.244,114.185 40.140,114.769 40.724 C 114.831 40.786,115.343 40.605,115.907 40.320 C 116.472 40.036,117.893 39.483,119.067 39.092 C 120.240 38.700,121.620 38.237,122.133 38.063 C 124.146 37.380,133.692 37.877,132.664 38.611 C 132.278 38.887,130.872 40.768,130.131 42.000 C 129.778 42.587,129.394 43.107,129.278 43.156 C 129.162 43.204,129.067 43.366,129.067 43.515 C 129.067 43.664,128.392 44.877,127.567 46.211 C 126.139 48.518,121.851 56.797,120.625 59.613 C 118.429 64.658,114.400 76.104,114.400 77.300 C 114.400 77.563,114.310 77.868,114.200 77.977 C 114.091 78.087,113.863 78.917,113.695 79.822 C 113.527 80.727,113.199 82.293,112.968 83.303 C 112.736 84.312,112.610 85.242,112.689 85.369 C 112.767 85.496,112.704 85.600,112.549 85.600 C 112.394 85.600,112.267 86.073,112.267 86.651 C 112.267 87.229,112.157 87.770,112.023 87.853 C 111.888 87.936,111.701 88.933,111.606 90.068 C 111.511 91.204,111.328 92.373,111.200 92.667 C 110.944 93.252,110.827 94.017,110.385 98.000 C 110.223 99.467,109.989 101.087,109.867 101.600 C 108.505 107.297,108.497 132.267,109.854 141.600 C 109.993 142.553,110.304 144.833,110.547 146.667 C 110.789 148.500,111.090 150.480,111.215 151.067 C 111.341 151.653,111.701 153.513,112.016 155.200 C 113.195 161.506,114.698 167.936,115.211 168.863 C 115.351 169.118,115.467 169.527,115.467 169.773 C 115.467 170.199,116.111 172.599,116.530 173.733 C 116.638 174.027,116.934 174.927,117.186 175.733 C 117.439 176.540,117.739 177.440,117.853 177.733 C 117.967 178.027,118.267 178.927,118.520 179.733 C 118.772 180.540,119.079 181.440,119.202 181.733 C 119.325 182.027,119.634 182.867,119.890 183.600 C 120.146 184.333,120.455 185.047,120.577 185.187 C 120.700 185.326,120.801 185.626,120.802 185.853 C 120.803 186.081,120.983 186.610,121.202 187.030 C 121.421 187.451,121.600 187.961,121.600 188.164 C 121.600 188.367,121.720 188.533,121.867 188.533 C 122.013 188.533,122.133 188.721,122.133 188.950 C 122.133 189.180,122.433 190.023,122.800 190.825 C 123.167 191.627,123.467 192.352,123.467 192.436 C 123.467 192.521,123.811 193.328,124.231 194.229 C 124.652 195.130,125.161 196.257,125.363 196.733 C 125.565 197.210,125.829 197.600,125.950 197.600 C 126.070 197.600,126.093 197.840,126.000 198.133 C 125.903 198.439,125.952 198.667,126.115 198.667 C 126.272 198.667,126.400 198.847,126.400 199.067 C 126.400 199.287,126.520 199.467,126.667 199.467 C 126.813 199.467,126.933 199.593,126.933 199.747 C 126.933 200.235,128.610 203.733,128.843 203.733 C 128.966 203.733,129.072 203.943,129.078 204.200 C 129.085 204.457,129.381 205.147,129.737 205.733 C 130.093 206.320,130.624 207.280,130.919 207.867 C 131.213 208.453,131.936 209.713,132.527 210.667 C 133.117 211.620,133.674 212.610,133.765 212.867 C 133.855 213.123,134.008 213.333,134.104 213.333 C 134.200 213.333,134.515 213.783,134.803 214.333 C 135.092 214.883,135.389 215.393,135.464 215.467 C 135.539 215.540,136.403 216.800,137.384 218.267 C 140.101 222.326,140.565 222.970,143.104 226.203 C 145.419 229.150,149.930 234.517,151.036 235.639 C 151.346 235.953,152.591 237.222,153.802 238.459 L 156.005 240.707 155.336 241.065 C 154.968 241.262,154.667 241.523,154.667 241.645 C 154.667 241.970,154.997 241.902,155.584 241.458 C 156.300 240.917,156.507 240.964,156.800 241.733 C 156.939 242.100,157.229 242.400,157.444 242.400 C 157.659 242.400,157.911 242.522,158.003 242.671 C 158.226 243.033,146.264 242.836,145.802 242.470 C 145.175 241.973,139.849 241.763,140.254 242.251 C 140.444 242.480,140.925 242.667,141.323 242.667 C 142.047 242.667,142.456 243.401,142.736 245.200 C 142.799 245.606,142.992 245.715,143.543 245.657 C 143.941 245.614,144.267 245.704,144.267 245.857 C 144.267 246.009,143.997 246.143,143.667 246.154 C 143.276 246.168,143.206 246.226,143.467 246.320 C 143.687 246.400,144.227 246.623,144.667 246.817 C 145.107 247.011,145.767 247.220,146.133 247.282 C 146.500 247.343,145.877 247.410,144.750 247.430 C 140.838 247.500,136.421 245.520,132.726 242.041 C 132.547 241.872,131.680 241.200,130.800 240.547 C 120.307 232.769,107.743 219.800,99.786 208.533 C 98.594 206.847,97.406 205.167,97.144 204.800 C 96.352 203.689,93.600 199.257,93.600 199.093 C 93.600 199.008,93.088 198.128,92.462 197.136 C 91.836 196.145,91.086 194.853,90.795 194.267 C 90.505 193.680,90.207 193.140,90.133 193.067 C 89.833 192.766,86.877 186.408,85.732 183.600 C 85.313 182.573,84.872 181.619,84.752 181.480 C 84.632 181.341,84.533 181.059,84.533 180.854 C 84.533 180.648,84.341 180.042,84.106 179.507 C 83.438 177.985,83.273 177.560,82.793 176.133 C 82.546 175.400,82.250 174.560,82.135 174.267 C 82.020 173.973,81.719 172.953,81.467 172.000 C 81.214 171.047,80.913 170.027,80.798 169.733 C 80.682 169.440,80.383 168.360,80.133 167.333 C 79.882 166.307,79.578 165.107,79.455 164.667 C 79.333 164.227,79.036 162.847,78.796 161.600 C 78.556 160.353,78.257 158.913,78.131 158.400 C 78.005 157.887,77.719 156.087,77.495 154.400 C 77.271 152.713,76.933 150.193,76.744 148.800 C 76.286 145.430,76.280 126.876,76.736 123.867 C 76.914 122.693,77.249 120.293,77.481 118.533 C 77.920 115.199,78.105 114.086,78.809 110.533 C 79.747 105.801,80.822 101.453,82.294 96.434 C 82.805 94.692,83.170 93.215,83.106 93.150 C 82.933 92.978,80.744 100.396,79.903 104.000 C 78.268 111.012,77.704 114.175,76.506 123.067 C 75.257 132.334,76.220 151.924,78.414 161.867 C 82.195 179.009,88.299 192.815,98.929 208.267 C 107.352 220.511,127.822 240.372,138.627 246.784 C 142.535 249.103,155.848 248.554,161.400 245.845 C 163.010 245.059,162.991 244.963,160.879 243.200 C 158.416 241.144,151.718 234.488,149.072 231.467 C 147.852 230.073,146.537 228.573,146.150 228.133 C 140.749 221.987,132.753 209.868,127.941 200.533 C 117.940 181.133,112.019 160.368,109.692 136.533 C 106.296 101.767,115.239 65.078,133.180 40.170 C 135.407 37.078,135.466 36.933,134.600 36.701 C 133.963 36.531,128.682 36.542,127.333 36.717 M106.717 45.344 C 106.396 45.643,106.133 45.964,106.133 46.057 C 106.133 46.150,106.433 45.944,106.800 45.600 C 107.425 45.013,107.580 44.800,107.384 44.800 C 107.338 44.800,107.038 45.045,106.717 45.344 M90.581 73.746 C 89.955 75.059,90.043 75.283,90.698 74.042 C 90.995 73.478,91.191 72.969,91.134 72.912 C 91.076 72.854,90.827 73.229,90.581 73.746 M88.310 78.811 C 87.863 79.792,87.948 80.001,88.432 79.110 C 88.657 78.693,88.792 78.303,88.731 78.242 C 88.670 78.181,88.480 78.437,88.310 78.811 M86.963 82.163 C 86.799 82.634,86.711 83.066,86.768 83.124 C 86.825 83.181,87.006 82.842,87.170 82.370 C 87.335 81.899,87.422 81.467,87.365 81.410 C 87.308 81.353,87.127 81.692,86.963 82.163 M85.883 84.950 C 85.571 85.786,85.361 86.517,85.418 86.573 C 85.475 86.630,85.774 85.990,86.083 85.150 C 86.393 84.310,86.602 83.580,86.549 83.527 C 86.496 83.473,86.196 84.114,85.883 84.950 M300.067 86.058 C 300.470 86.119,301.130 86.119,301.533 86.058 C 301.937 85.997,301.607 85.947,300.800 85.947 C 299.993 85.947,299.663 85.997,300.067 86.058 M84.549 88.549 C 84.222 89.445,84.012 90.234,84.081 90.304 C 84.151 90.373,84.460 89.682,84.769 88.769 C 85.498 86.609,85.321 86.432,84.549 88.549 M276.667 87.771 C 269.101 88.173,268.174 88.252,267.903 88.523 C 267.751 88.676,267.071 88.800,266.391 88.800 C 265.712 88.800,264.506 88.915,263.711 89.057 C 262.917 89.198,261.067 89.501,259.600 89.730 C 255.186 90.421,251.943 90.948,250.533 91.204 C 246.267 91.978,241.592 92.858,240.667 93.061 C 240.080 93.190,238.580 93.490,237.333 93.729 C 232.342 94.684,218.934 97.713,215.333 98.699 C 212.354 99.516,211.407 99.787,210.191 100.172 C 209.562 100.371,208.752 100.533,208.391 100.533 C 208.029 100.533,207.733 100.653,207.733 100.800 C 207.733 101.191,208.380 101.104,212.800 100.125 C 213.900 99.881,215.280 99.583,215.867 99.462 C 216.453 99.341,218.313 98.935,220.000 98.558 C 224.038 97.657,235.694 95.372,239.067 94.820 C 240.533 94.580,242.333 94.267,243.067 94.124 C 245.388 93.673,248.533 93.492,248.533 93.810 C 248.533 93.968,248.752 94.167,249.020 94.252 C 249.378 94.365,249.478 94.604,249.397 95.152 C 249.329 95.617,249.447 96.029,249.711 96.248 C 249.943 96.441,250.133 96.920,250.133 97.313 C 250.133 98.233,250.704 99.462,251.133 99.465 C 251.343 99.466,251.467 99.856,251.467 100.518 C 251.467 101.096,251.587 101.643,251.733 101.733 C 251.880 101.824,252.000 102.135,252.000 102.424 C 252.000 102.713,252.180 103.019,252.400 103.104 C 252.625 103.190,252.800 103.587,252.800 104.013 C 252.800 104.428,252.920 104.843,253.067 104.933 C 253.213 105.024,253.333 105.504,253.333 106.000 C 253.333 106.496,253.453 106.976,253.600 107.067 C 253.747 107.157,253.868 107.614,253.870 108.082 C 253.876 109.372,254.132 110.071,254.650 110.206 C 255.108 110.326,255.668 113.325,255.334 113.866 C 255.262 113.982,255.382 114.146,255.602 114.230 C 255.888 114.340,256.000 114.794,256.000 115.843 C 256.000 116.645,256.108 117.369,256.240 117.450 C 256.373 117.532,256.564 118.319,256.667 119.200 C 256.769 120.081,256.961 120.868,257.093 120.950 C 257.225 121.031,257.333 122.651,257.333 124.549 C 257.333 127.439,257.398 128.000,257.733 128.000 C 258.068 128.000,258.133 128.561,258.133 131.451 C 258.133 133.464,258.244 134.971,258.400 135.067 C 258.556 135.163,258.667 136.669,258.667 138.682 C 258.667 140.805,258.564 142.133,258.400 142.133 C 258.235 142.133,258.133 143.511,258.133 145.733 C 258.133 147.713,258.027 149.333,257.896 149.333 C 257.766 149.333,257.573 150.893,257.467 152.800 C 257.294 155.911,257.224 156.267,256.786 156.267 C 256.518 156.267,256.233 156.372,256.154 156.500 C 256.075 156.628,255.378 156.799,254.605 156.880 C 253.832 156.961,251.520 157.216,249.467 157.447 C 243.379 158.132,237.525 158.664,230.133 159.204 C 214.400 160.354,212.616 160.620,221.067 160.557 C 226.895 160.514,243.637 159.472,253.824 158.519 C 256.121 158.304,259.260 158.013,260.800 157.872 C 262.340 157.731,264.560 157.487,265.733 157.330 C 266.907 157.173,268.767 156.927,269.867 156.784 C 270.967 156.641,273.160 156.346,274.741 156.128 C 276.323 155.911,278.033 155.733,278.541 155.733 C 279.050 155.733,279.467 155.613,279.467 155.467 C 279.467 155.320,279.977 155.197,280.600 155.194 C 281.223 155.190,282.213 155.069,282.800 154.924 C 284.209 154.575,286.138 154.155,288.267 153.732 C 290.205 153.346,295.901 151.932,297.818 151.360 C 298.505 151.155,300.447 150.602,302.133 150.131 C 303.820 149.660,305.440 149.173,305.733 149.050 C 306.027 148.926,307.287 148.471,308.533 148.040 C 310.998 147.187,311.559 146.963,314.067 145.824 C 314.984 145.407,315.804 145.067,315.889 145.067 C 316.118 145.067,320.524 142.838,321.600 142.177 C 322.113 141.862,322.713 141.524,322.933 141.425 C 325.266 140.378,327.982 138.035,328.148 136.927 C 328.611 133.839,327.417 117.723,326.287 111.800 C 324.729 103.640,324.699 103.500,323.755 100.055 C 322.591 95.806,321.941 94.041,321.426 93.733 C 321.181 93.587,320.787 93.287,320.551 93.067 C 320.315 92.847,319.853 92.629,319.525 92.583 C 319.197 92.537,318.599 92.327,318.197 92.118 C 317.795 91.908,317.315 91.736,317.130 91.735 C 316.944 91.734,316.584 91.627,316.330 91.497 C 310.227 88.381,293.964 86.853,276.667 87.771 M83.493 91.627 C 83.131 92.938,83.318 93.125,83.733 91.867 C 83.909 91.334,83.990 90.834,83.913 90.757 C 83.835 90.680,83.647 91.071,83.493 91.627 M246.933 94.654 C 247.153 94.803,247.563 94.927,247.844 94.929 C 248.527 94.935,248.314 94.782,247.333 94.563 C 246.749 94.432,246.641 94.457,246.933 94.654 M151.276 117.733 C 151.278 118.467,151.330 118.735,151.391 118.330 C 151.453 117.924,151.451 117.324,151.388 116.996 C 151.324 116.668,151.274 117.000,151.276 117.733 M151.050 126.267 C 151.050 130.080,151.087 131.603,151.133 129.651 C 151.178 127.699,151.178 124.579,151.132 122.718 C 151.087 120.856,151.049 122.453,151.050 126.267 M151.276 135.067 C 151.278 135.800,151.330 136.068,151.391 135.663 C 151.453 135.258,151.451 134.658,151.388 134.330 C 151.324 134.002,151.274 134.333,151.276 135.067 M151.482 137.489 C 151.490 138.063,151.602 139.013,151.729 139.600 C 151.901 140.391,151.923 140.149,151.813 138.667 C 151.651 136.498,151.457 135.806,151.482 137.489 M152.047 141.467 C 152.038 141.760,152.130 142.480,152.251 143.067 C 152.437 143.964,152.472 144.006,152.471 143.333 C 152.470 142.399,152.072 140.647,152.047 141.467 M152.722 145.467 C 152.806 146.200,152.970 147.040,153.087 147.333 L 153.300 147.867 153.291 147.333 C 153.286 147.040,153.122 146.200,152.926 145.467 L 152.571 144.133 152.722 145.467 M153.353 148.267 C 153.322 148.808,154.977 154.446,155.123 154.299 C 155.187 154.235,154.917 153.062,154.522 151.691 C 153.535 148.263,153.379 147.806,153.353 148.267 M155.353 155.200 C 155.451 155.567,155.642 156.047,155.778 156.267 C 155.950 156.545,155.971 156.463,155.847 156.000 C 155.749 155.633,155.558 155.153,155.422 154.933 C 155.250 154.655,155.229 154.737,155.353 155.200 M156.000 156.907 C 156.000 157.268,157.660 161.096,157.769 160.987 C 157.828 160.927,157.501 159.991,157.042 158.906 C 156.208 156.936,156.000 156.537,156.000 156.907 M283.867 198.405 C 277.433 199.644,273.251 200.326,269.796 200.699 C 268.950 200.790,268.193 200.970,268.113 201.099 C 268.034 201.228,267.248 201.333,266.367 201.333 C 265.486 201.333,264.523 201.463,264.226 201.622 C 263.930 201.780,263.248 201.951,262.711 202.002 C 261.805 202.087,261.027 202.220,257.267 202.932 C 253.023 203.735,251.849 203.924,251.687 203.830 C 251.273 203.592,250.161 204.385,250.000 205.033 C 249.343 207.669,242.867 220.465,239.255 226.267 C 226.612 246.574,210.960 258.276,192.667 261.097 C 188.564 261.730,189.498 262.028,196.267 262.248 C 216.798 262.914,238.134 258.229,256.794 248.957 C 261.200 246.767,261.278 246.709,266.097 241.894 C 269.578 238.415,270.870 236.991,273.733 233.478 C 277.542 228.804,281.872 221.261,283.472 216.511 C 283.938 215.130,284.415 213.760,284.533 213.467 C 285.208 211.787,286.065 206.500,286.289 202.623 C 286.559 197.972,286.515 197.895,283.867 198.405 M157.241 243.612 C 157.489 244.258,157.143 244.375,156.812 243.756 C 156.606 243.371,156.602 243.200,156.799 243.200 C 156.955 243.200,157.154 243.385,157.241 243.612 " stroke="none" fill="#7d6214" fill-rule="evenodd"></path><path id="path4" d="M189.518 4.259 C 185.852 4.561,185.939 4.834,189.626 4.596 C 193.374 4.354,206.244 4.339,210.400 4.571 C 212.520 4.690,213.179 4.665,212.533 4.491 C 211.321 4.163,192.919 3.978,189.518 4.259 M182.800 5.067 L 182.000 5.270 182.800 5.278 C 183.240 5.283,184.200 5.193,184.933 5.079 L 186.267 4.871 184.933 4.867 C 184.200 4.865,183.240 4.955,182.800 5.067 M215.067 5.079 C 215.800 5.193,216.760 5.283,217.200 5.278 L 218.000 5.270 217.200 5.067 C 216.760 4.955,215.800 4.865,215.067 4.867 L 213.733 4.871 215.067 5.079 M178.000 5.748 C 173.652 6.496,168.180 7.735,168.373 7.928 C 168.441 7.997,169.796 7.754,171.382 7.389 C 172.969 7.023,175.467 6.518,176.933 6.266 C 178.400 6.014,180.080 5.714,180.667 5.599 C 182.614 5.218,180.342 5.345,178.000 5.748 M218.533 5.474 C 218.680 5.529,220.360 5.829,222.267 6.141 C 224.173 6.454,227.031 7.012,228.618 7.381 C 230.204 7.751,231.557 7.998,231.625 7.931 C 231.738 7.818,230.040 7.368,226.800 6.654 C 223.489 5.924,217.403 5.056,218.533 5.474 M166.267 8.410 C 165.215 8.774,165.213 8.777,166.133 8.622 C 167.221 8.438,168.333 8.032,167.733 8.037 C 167.513 8.039,166.853 8.207,166.267 8.410 M232.400 8.231 C 232.693 8.359,233.353 8.540,233.867 8.633 C 234.507 8.750,234.633 8.729,234.267 8.569 C 233.973 8.441,233.313 8.260,232.800 8.167 C 232.159 8.050,232.034 8.071,232.400 8.231 M162.440 9.376 C 161.508 9.665,160.795 9.951,160.856 10.011 C 160.966 10.121,164.835 9.097,165.044 8.903 C 165.313 8.654,163.996 8.893,162.440 9.376 M236.800 9.483 C 237.900 9.835,238.920 10.082,239.067 10.032 C 239.379 9.927,235.720 8.790,235.171 8.822 C 234.967 8.834,235.700 9.131,236.800 9.483 M159.467 10.400 C 159.111 10.630,159.111 10.658,159.467 10.658 C 159.687 10.658,160.047 10.542,160.267 10.400 C 160.622 10.170,160.622 10.142,160.267 10.142 C 160.047 10.142,159.687 10.258,159.467 10.400 M239.733 10.400 C 239.953 10.542,240.313 10.658,240.533 10.658 C 240.889 10.658,240.889 10.630,240.533 10.400 C 240.313 10.258,239.953 10.142,239.733 10.142 C 239.378 10.142,239.378 10.170,239.733 10.400 M157.333 11.054 C 156.820 11.252,156.173 11.489,155.895 11.580 C 155.618 11.671,155.446 11.802,155.514 11.870 C 155.631 11.987,158.676 11.006,158.911 10.776 C 159.144 10.547,158.228 10.709,157.333 11.054 M241.089 10.776 C 241.284 10.967,244.359 11.997,244.453 11.902 C 244.565 11.791,241.665 10.667,241.265 10.667 C 241.107 10.667,241.028 10.716,241.089 10.776 M153.895 12.289 C 153.543 12.430,153.319 12.608,153.397 12.686 C 153.474 12.763,153.942 12.651,154.436 12.435 C 155.417 12.007,154.929 11.875,153.895 12.289 M245.564 12.435 C 246.058 12.651,246.525 12.764,246.601 12.688 C 246.762 12.527,245.455 11.989,244.983 12.022 C 244.809 12.034,245.071 12.220,245.564 12.435 M151.733 13.131 C 149.047 14.321,148.234 14.667,148.121 14.667 C 147.857 14.667,141.333 17.855,141.333 17.984 C 141.333 18.173,141.956 17.913,144.600 16.618 C 145.884 15.990,148.284 14.921,149.934 14.243 C 151.583 13.565,152.983 12.963,153.044 12.905 C 153.270 12.692,152.379 12.846,151.733 13.131 M246.956 12.905 C 247.017 12.963,248.387 13.553,250.000 14.216 C 256.660 16.955,263.686 20.647,269.867 24.655 C 272.803 26.559,273.464 26.933,272.533 26.159 C 269.678 23.786,258.069 17.271,252.720 15.039 C 251.811 14.660,250.707 14.188,250.267 13.991 C 248.120 13.031,246.540 12.513,246.956 12.905 M139.067 19.027 C 134.105 21.755,133.732 21.981,128.267 25.561 C 124.996 27.703,120.964 30.670,118.133 33.017 C 117.180 33.807,116.100 34.701,115.733 35.003 C 99.974 47.971,85.145 69.206,78.082 88.918 C 76.704 92.766,75.936 95.225,76.071 95.360 C 76.131 95.420,76.576 94.259,77.060 92.781 C 78.052 89.753,79.541 85.732,80.263 84.133 C 80.528 83.547,81.071 82.287,81.469 81.333 C 89.338 62.500,104.954 43.022,122.933 29.613 C 127.783 25.996,139.571 18.667,140.538 18.667 C 140.665 18.667,140.843 18.547,140.933 18.400 C 141.211 17.950,140.735 18.110,139.067 19.027 M273.333 26.744 C 273.333 26.821,273.963 27.334,274.733 27.884 C 275.503 28.435,276.523 29.180,277.000 29.541 C 277.477 29.902,277.867 30.129,277.867 30.047 C 277.867 29.886,275.263 27.852,274.067 27.079 C 273.663 26.819,273.333 26.668,273.333 26.744 M279.043 30.976 C 279.616 31.466,281.596 33.117,283.443 34.645 C 294.538 43.829,305.769 57.332,312.837 69.985 C 314.033 72.126,315.067 73.822,315.136 73.753 C 315.205 73.684,314.967 73.112,314.607 72.481 C 308.437 61.652,303.580 54.797,296.415 46.803 C 293.373 43.409,288.234 38.376,285.067 35.689 C 282.017 33.102,280.099 31.548,279.067 30.829 L 278.000 30.085 279.043 30.976 M108.600 44.031 C 107.691 44.613,107.397 45.004,108.200 44.562 C 108.812 44.226,109.770 43.485,109.600 43.480 C 109.527 43.477,109.077 43.725,108.600 44.031 M291.067 45.257 C 290.420 45.412,289.884 45.867,290.347 45.867 C 290.523 45.867,290.667 46.050,290.667 46.273 C 290.667 46.497,290.967 46.794,291.333 46.933 C 291.700 47.073,292.000 47.323,292.000 47.489 C 292.000 47.657,292.191 47.717,292.430 47.626 C 292.781 47.491,292.827 47.589,292.683 48.165 C 292.528 48.780,292.575 48.851,293.053 48.726 C 293.354 48.648,293.600 48.700,293.600 48.843 C 293.600 49.199,295.421 50.890,295.606 50.705 C 295.688 50.624,295.824 50.821,295.908 51.145 C 295.993 51.469,296.175 51.733,296.313 51.733 C 296.607 51.733,299.194 54.362,300.533 56.022 C 301.047 56.658,301.737 57.415,302.067 57.704 C 302.397 57.993,302.667 58.388,302.667 58.581 C 302.667 58.775,302.854 58.933,303.082 58.933 C 303.311 58.933,303.439 59.029,303.367 59.146 C 303.111 59.560,303.684 60.156,304.018 59.822 C 304.318 59.522,303.613 57.867,303.185 57.867 C 303.094 57.867,302.894 57.597,302.741 57.267 C 302.589 56.937,301.844 55.887,301.086 54.933 C 300.329 53.980,299.564 53.018,299.388 52.796 C 298.134 51.218,296.505 49.284,295.571 48.267 C 294.966 47.607,294.082 46.617,293.608 46.067 C 292.766 45.092,292.331 44.953,291.067 45.257 M267.600 46.582 C 266.427 46.623,262.827 46.842,259.600 47.068 C 251.546 47.634,244.225 47.967,243.763 47.790 C 243.517 47.696,243.448 47.755,243.572 47.955 C 243.714 48.184,243.076 48.270,241.149 48.280 C 239.710 48.287,237.333 48.414,235.867 48.562 C 234.400 48.710,232.240 48.926,231.067 49.043 C 227.948 49.354,223.586 49.862,221.600 50.146 C 220.647 50.282,218.307 50.582,216.400 50.813 C 212.254 51.314,207.666 51.921,205.467 52.260 C 204.587 52.396,202.547 52.697,200.933 52.930 C 196.633 53.551,182.807 55.806,178.133 56.649 C 177.033 56.848,174.290 57.346,172.038 57.756 L 167.943 58.501 167.254 59.584 C 159.642 71.554,153.297 92.157,151.768 109.867 C 151.201 116.436,151.199 116.569,151.691 116.418 C 151.934 116.343,153.933 115.726,156.133 115.048 C 162.919 112.956,173.178 109.938,181.067 107.713 C 184.220 106.824,187.400 105.925,188.133 105.717 C 196.121 103.443,211.040 99.635,221.467 97.209 C 223.080 96.833,224.880 96.413,225.467 96.274 C 227.809 95.722,235.199 94.137,237.333 93.729 C 238.580 93.490,240.080 93.190,240.667 93.061 C 241.592 92.858,246.267 91.978,250.533 91.204 C 251.943 90.948,255.186 90.421,259.600 89.730 C 261.067 89.501,262.917 89.198,263.711 89.057 C 264.506 88.915,265.712 88.800,266.391 88.800 C 267.071 88.800,267.760 88.666,267.924 88.503 C 268.087 88.339,268.824 88.197,269.562 88.186 C 270.299 88.174,270.852 88.084,270.790 87.984 C 270.728 87.884,271.546 87.733,272.606 87.649 C 273.666 87.564,276.333 87.309,278.533 87.081 C 280.733 86.853,286.553 86.583,291.467 86.481 C 296.380 86.378,300.196 86.251,299.946 86.197 C 299.587 86.120,299.543 85.968,299.732 85.470 C 299.913 84.995,299.809 84.503,299.307 83.463 C 298.778 82.367,298.707 82.006,298.962 81.699 C 299.219 81.389,299.143 81.170,298.574 80.576 C 298.185 80.170,297.867 79.641,297.867 79.401 C 297.867 79.161,297.747 78.891,297.600 78.800 C 297.453 78.709,297.333 78.362,297.333 78.029 C 297.333 77.695,297.243 77.334,297.133 77.226 C 297.023 77.118,296.808 76.528,296.655 75.915 C 296.446 75.076,296.231 74.779,295.788 74.715 C 295.399 74.658,295.200 74.443,295.200 74.079 C 295.200 73.256,294.623 71.391,294.221 70.912 C 294.026 70.681,293.867 70.384,293.867 70.254 C 293.867 69.662,292.621 67.487,292.221 67.380 C 291.926 67.301,291.714 66.851,291.594 66.051 C 291.480 65.290,291.175 64.619,290.773 64.241 C 290.421 63.911,290.133 63.436,290.133 63.186 C 290.133 62.936,289.953 62.583,289.733 62.400 C 289.513 62.217,289.333 61.851,289.333 61.587 C 289.333 61.322,289.033 60.869,288.667 60.581 C 288.260 60.261,288.000 59.785,288.000 59.362 C 288.000 58.922,287.853 58.667,287.600 58.667 C 287.380 58.667,287.197 58.517,287.194 58.333 C 287.191 58.150,286.953 57.700,286.667 57.333 C 286.380 56.967,286.142 56.427,286.139 56.133 C 286.136 55.840,285.533 54.975,284.800 54.210 C 284.067 53.446,283.467 52.651,283.467 52.443 C 283.467 52.235,283.287 51.916,283.067 51.733 C 282.847 51.551,282.667 51.056,282.667 50.634 C 282.667 50.158,282.526 49.867,282.298 49.867 C 282.095 49.867,281.866 49.627,281.789 49.333 C 281.713 49.040,281.473 48.800,281.256 48.800 C 281.039 48.800,280.785 48.590,280.691 48.333 C 280.597 48.077,280.337 47.537,280.112 47.133 L 279.704 46.400 274.719 46.454 C 271.977 46.483,268.773 46.541,267.600 46.582 M105.018 47.800 C 103.676 49.600,98.043 58.932,98.202 59.091 C 98.250 59.139,99.305 57.474,100.545 55.391 C 101.785 53.308,103.488 50.553,104.328 49.268 C 105.875 46.905,106.200 46.213,105.018 47.800 M304.158 59.960 C 304.081 60.084,304.524 60.789,305.142 61.525 C 305.761 62.262,306.410 63.090,306.584 63.366 C 306.759 63.641,306.909 63.737,306.918 63.578 C 306.926 63.419,306.453 62.603,305.867 61.766 C 305.280 60.928,304.800 60.128,304.800 59.988 C 304.800 59.672,304.348 59.652,304.158 59.960 M165.789 66.933 C 165.620 67.580,166.096 67.946,166.441 67.434 C 166.629 67.156,166.670 67.196,166.611 67.600 C 166.547 68.041,166.664 68.119,167.290 68.053 C 167.705 68.009,168.185 68.085,168.356 68.223 C 168.527 68.360,169.207 68.553,169.867 68.652 C 170.966 68.815,171.709 69.054,172.811 69.598 C 173.037 69.710,174.078 69.887,175.126 69.993 C 176.485 70.129,177.161 70.329,177.489 70.692 C 177.742 70.971,178.284 71.200,178.692 71.200 C 179.101 71.200,179.505 71.312,179.590 71.450 C 179.819 71.821,181.208 72.466,182.197 72.660 C 183.673 72.950,185.387 73.725,186.667 74.681 C 187.180 75.064,187.810 75.454,188.067 75.547 C 188.323 75.640,188.533 75.900,188.533 76.125 C 188.533 76.379,188.777 76.533,189.180 76.533 C 189.535 76.533,190.196 76.845,190.649 77.226 C 191.114 77.618,191.949 77.982,192.571 78.066 C 193.324 78.167,193.710 78.364,193.796 78.691 C 193.865 78.954,194.269 79.246,194.694 79.339 C 195.287 79.470,195.467 79.659,195.467 80.155 C 195.467 80.517,195.624 80.800,195.825 80.800 C 196.023 80.800,196.401 81.040,196.667 81.333 C 196.932 81.627,197.311 81.867,197.508 81.867 C 197.705 81.867,197.867 82.017,197.867 82.202 C 197.867 82.386,198.462 82.810,199.189 83.143 C 199.998 83.514,200.646 84.028,200.856 84.464 C 201.045 84.856,201.500 85.248,201.866 85.334 C 202.344 85.446,202.571 85.713,202.668 86.279 C 202.764 86.840,202.976 87.091,203.402 87.152 C 203.866 87.218,204.000 87.412,204.000 88.019 C 204.000 88.750,204.067 88.800,205.049 88.800 C 205.994 88.800,206.106 88.872,206.182 89.531 C 206.239 90.019,206.511 90.379,206.999 90.612 C 207.466 90.835,207.980 91.487,208.418 92.414 C 208.796 93.213,209.277 93.867,209.486 93.867 C 209.695 93.867,209.867 94.017,209.868 94.200 C 209.869 94.383,210.042 94.863,210.252 95.267 C 210.585 95.904,210.585 96.000,210.251 96.000 C 210.040 96.000,209.867 96.134,209.867 96.298 C 209.867 96.484,210.092 96.526,210.467 96.410 C 210.797 96.307,211.367 96.164,211.733 96.092 L 212.400 95.960 211.754 96.313 C 210.568 96.963,210.712 97.437,212.031 97.227 C 212.674 97.125,213.240 96.927,213.289 96.787 C 213.338 96.648,213.698 96.543,214.089 96.554 L 214.800 96.575 214.067 96.843 C 213.663 96.991,213.333 97.221,213.333 97.356 C 213.333 97.490,212.980 97.600,212.549 97.600 C 212.118 97.600,211.684 97.731,211.584 97.892 C 211.485 98.052,211.114 98.128,210.760 98.060 C 210.405 97.993,210.185 98.007,210.270 98.093 C 210.431 98.253,208.467 98.881,205.180 99.718 C 204.142 99.982,202.882 100.326,202.380 100.481 C 201.878 100.637,200.987 100.888,200.400 101.040 C 199.813 101.192,198.313 101.616,197.067 101.981 C 194.667 102.685,188.413 104.455,187.067 104.811 C 184.786 105.415,167.472 110.553,165.600 111.182 C 164.793 111.452,163.473 111.870,162.667 112.109 C 160.233 112.830,156.784 113.905,154.695 114.592 C 152.494 115.317,152.148 115.188,152.387 113.733 C 152.459 113.293,152.587 112.093,152.670 111.067 C 152.921 107.983,153.790 101.617,154.437 98.133 C 156.455 87.257,161.946 71.105,164.589 68.268 C 165.203 67.609,165.239 67.535,165.300 66.800 C 165.318 66.580,165.467 66.400,165.631 66.400 C 165.798 66.400,165.867 66.635,165.789 66.933 M315.421 74.600 C 315.532 74.857,316.260 76.387,317.037 78.000 C 318.628 81.302,321.301 87.674,321.995 89.817 C 322.248 90.597,322.514 91.175,322.587 91.102 C 323.016 90.673,315.958 74.133,315.347 74.133 C 315.275 74.133,315.309 74.343,315.421 74.600 M322.675 91.733 C 322.675 91.953,322.791 92.313,322.933 92.533 C 323.163 92.889,323.192 92.889,323.192 92.533 C 323.192 92.313,323.076 91.953,322.933 91.733 C 322.704 91.378,322.675 91.378,322.675 91.733 M323.380 93.733 C 323.467 94.173,323.639 94.713,323.761 94.933 C 324.161 95.651,324.023 94.633,323.599 93.733 L 323.222 92.933 323.380 93.733 M324.023 95.733 C 324.031 95.953,324.141 96.373,324.267 96.667 L 324.496 97.200 324.511 96.667 C 324.519 96.373,324.409 95.953,324.267 95.733 C 324.037 95.378,324.010 95.378,324.023 95.733 M75.649 96.102 C 75.549 96.363,75.474 96.777,75.484 97.022 C 75.495 97.316,75.587 97.249,75.758 96.823 C 75.899 96.469,75.974 96.055,75.923 95.903 C 75.873 95.751,75.749 95.841,75.649 96.102 M324.604 97.667 C 324.675 97.851,324.954 98.901,325.224 100.001 C 325.494 101.100,325.757 101.798,325.807 101.550 C 325.909 101.054,324.867 97.333,324.627 97.333 C 324.544 97.333,324.534 97.484,324.604 97.667 M75.129 97.782 C 74.866 98.245,73.300 104.834,73.390 105.103 C 73.442 105.259,73.920 103.665,74.452 101.560 C 75.322 98.114,75.498 97.135,75.129 97.782 M325.867 102.272 C 325.867 102.478,326.187 103.898,326.887 106.800 C 327.035 107.411,327.157 107.617,327.172 107.284 C 327.203 106.638,326.242 102.420,326.012 102.190 C 325.932 102.110,325.867 102.147,325.867 102.272 M72.993 106.133 C 72.891 106.500,72.818 107.160,72.830 107.600 C 72.851 108.328,72.876 108.305,73.102 107.341 C 73.383 106.137,73.288 105.074,72.993 106.133 M327.373 109.071 C 327.586 110.967,327.945 112.380,327.947 111.333 C 327.948 110.893,327.789 109.933,327.593 109.200 L 327.237 107.867 327.373 109.071 M72.451 109.121 C 72.182 110.248,71.930 112.402,72.084 112.260 C 72.268 112.090,72.826 108.737,72.692 108.603 C 72.640 108.551,72.532 108.784,72.451 109.121 M328.047 112.800 C 328.038 113.167,328.130 113.947,328.251 114.533 L 328.472 115.600 328.471 114.667 C 328.470 113.490,328.073 111.742,328.047 112.800 M71.660 113.567 C 71.554 114.062,71.480 114.842,71.496 115.300 C 71.521 116.011,71.560 115.958,71.766 114.933 C 71.899 114.273,71.973 113.493,71.930 113.200 C 71.878 112.839,71.791 112.958,71.660 113.567 M328.725 117.600 C 328.809 118.700,328.974 120.200,329.091 120.933 C 329.244 121.895,329.264 121.635,329.161 120.000 C 329.082 118.753,328.917 117.253,328.795 116.667 C 328.639 115.919,328.618 116.198,328.725 117.600 M71.108 117.524 C 70.880 119.310,70.638 123.389,70.780 123.067 C 70.952 122.677,71.503 116.481,71.377 116.355 C 71.319 116.297,71.198 116.823,71.108 117.524 M329.467 134.133 C 329.467 140.367,329.545 144.807,329.640 144.000 C 329.871 142.051,329.877 125.529,329.647 124.000 C 329.548 123.340,329.467 127.900,329.467 134.133 M70.305 125.639 C 70.090 127.696,70.128 139.103,70.360 142.133 C 70.455 143.380,70.533 139.810,70.533 134.200 C 70.533 128.590,70.520 124.000,70.505 124.000 C 70.489 124.000,70.399 124.738,70.305 125.639 M70.836 147.067 C 70.970 149.744,71.409 152.577,71.414 150.800 C 71.416 150.360,71.256 148.740,71.059 147.200 L 70.702 144.400 70.836 147.067 M328.957 147.533 C 328.523 152.220,328.523 152.218,328.788 151.200 C 329.076 150.098,329.462 145.600,329.269 145.600 C 329.196 145.600,329.055 146.470,328.957 147.533 M306.133 150.319 C 305.327 150.535,304.007 150.868,303.200 151.058 C 302.393 151.249,300.773 151.651,299.600 151.951 C 293.976 153.390,284.089 155.235,281.667 155.297 C 280.897 155.317,280.267 155.423,280.267 155.533 C 280.267 155.643,279.670 155.733,278.941 155.733 C 278.213 155.733,276.323 155.911,274.741 156.128 C 273.160 156.346,270.967 156.641,269.867 156.784 C 268.767 156.927,266.907 157.173,265.733 157.330 C 264.560 157.487,262.340 157.731,260.800 157.872 C 259.260 158.013,256.125 158.304,253.833 158.518 C 233.354 160.434,209.884 161.411,176.000 161.759 C 166.247 161.859,158.234 161.966,158.195 161.997 C 158.156 162.029,158.499 162.942,158.958 164.027 C 165.110 178.579,174.273 193.386,186.415 208.400 C 190.291 213.192,189.108 212.837,197.467 211.721 C 198.493 211.584,200.893 211.288,202.800 211.064 C 204.707 210.840,207.107 210.539,208.133 210.396 C 209.160 210.253,212.280 209.835,215.067 209.467 C 217.853 209.100,220.553 208.737,221.067 208.662 C 221.580 208.586,224.040 208.227,226.533 207.863 C 229.027 207.499,232.267 207.015,233.733 206.788 C 235.200 206.560,237.180 206.267,238.133 206.136 C 239.087 206.005,241.007 205.701,242.400 205.459 C 243.793 205.218,245.653 204.910,246.533 204.774 C 247.413 204.639,248.793 204.409,249.600 204.262 C 250.407 204.116,251.427 203.947,251.867 203.887 C 252.723 203.770,255.371 203.302,257.333 202.921 C 257.993 202.793,259.133 202.577,259.867 202.442 C 261.805 202.084,280.754 198.244,283.733 197.606 C 285.127 197.307,287.767 196.751,289.600 196.370 C 291.433 195.988,293.353 195.577,293.867 195.456 C 297.906 194.501,298.667 194.223,298.667 193.701 C 298.667 193.499,298.847 193.333,299.067 193.333 C 299.415 193.333,299.600 192.846,299.498 192.200 C 299.481 192.090,299.587 192.000,299.733 192.000 C 299.880 192.000,300.000 191.647,300.000 191.216 C 300.000 190.784,300.104 190.367,300.232 190.288 C 300.359 190.210,300.544 189.532,300.644 188.783 C 300.743 188.033,300.929 187.221,301.057 186.977 C 301.576 185.984,302.088 184.613,302.268 183.733 C 302.373 183.220,302.615 182.620,302.805 182.400 C 302.995 182.180,303.236 181.308,303.340 180.463 C 303.444 179.618,303.635 178.861,303.764 178.781 C 303.894 178.701,304.000 178.302,304.000 177.895 C 304.000 177.488,304.082 177.073,304.183 176.972 C 304.510 176.646,305.302 173.231,305.318 172.082 C 305.326 171.468,305.453 170.891,305.600 170.800 C 305.747 170.709,305.867 170.090,305.867 169.425 C 305.867 168.759,306.059 167.776,306.294 167.240 C 306.529 166.705,306.820 166.027,306.942 165.733 C 307.063 165.440,307.240 163.880,307.334 162.267 C 307.428 160.653,307.617 159.219,307.753 159.080 C 307.889 158.941,308.000 158.018,308.000 157.029 C 308.000 156.040,308.120 155.157,308.267 155.067 C 308.414 154.976,308.533 153.775,308.533 152.384 C 308.533 149.526,308.666 149.640,306.133 150.319 M71.502 152.400 C 71.480 153.366,72.418 158.907,72.642 159.131 C 72.882 159.371,72.816 158.834,72.141 155.067 C 71.799 153.160,71.512 151.960,71.502 152.400 M327.921 155.162 C 327.657 156.828,327.370 158.568,327.283 159.029 C 327.195 159.490,327.201 159.796,327.296 159.711 C 327.559 159.472,328.569 153.587,328.479 152.814 C 328.436 152.440,328.184 153.496,327.921 155.162 M72.853 160.000 C 72.853 160.367,72.949 160.967,73.067 161.333 L 73.280 162.000 73.280 161.333 C 73.280 160.967,73.184 160.367,73.067 160.000 L 72.853 159.333 72.853 160.000 M326.451 162.671 C 326.126 164.180,325.910 165.466,325.971 165.526 C 326.133 165.688,327.262 160.586,327.143 160.229 C 327.087 160.062,326.776 161.161,326.451 162.671 M73.371 162.533 C 73.373 162.827,73.538 163.547,73.738 164.133 L 74.102 165.200 73.946 164.133 C 73.861 163.547,73.695 162.827,73.579 162.533 L 73.367 162.000 73.371 162.533 M220.948 162.632 C 220.517 162.724,220.195 162.901,220.233 163.024 C 220.271 163.148,220.108 163.390,219.871 163.564 C 219.601 163.761,219.381 164.460,219.279 165.442 C 219.154 166.655,219.008 167.033,218.626 167.133 C 218.327 167.212,218.133 167.504,218.133 167.877 C 218.133 168.216,217.833 168.849,217.467 169.285 C 217.100 169.720,216.800 170.210,216.800 170.372 C 216.800 170.534,216.620 170.667,216.400 170.667 C 216.165 170.667,215.996 170.915,215.992 171.267 C 215.987 171.597,215.807 172.100,215.592 172.384 C 215.376 172.669,215.200 173.121,215.200 173.388 C 215.200 173.655,215.094 174.082,214.964 174.337 C 214.835 174.592,214.567 175.160,214.368 175.600 C 213.765 176.937,212.993 177.867,212.483 177.867 C 212.183 177.867,212.000 178.062,212.000 178.384 C 212.000 178.669,211.888 178.971,211.750 179.056 C 211.483 179.221,210.667 180.748,210.667 181.083 C 210.667 181.194,209.647 182.316,208.400 183.577 C 207.153 184.838,206.133 186.020,206.133 186.205 C 206.133 186.389,205.865 186.659,205.538 186.803 C 205.211 186.948,204.803 187.349,204.633 187.695 C 204.462 188.040,204.040 188.462,203.695 188.633 C 203.349 188.803,202.948 189.211,202.803 189.538 C 202.659 189.865,202.437 190.133,202.311 190.133 C 202.185 190.133,201.756 190.365,201.358 190.649 C 200.960 190.933,200.311 191.246,199.917 191.345 C 199.408 191.472,199.200 191.696,199.200 192.116 C 199.200 192.852,198.251 193.765,197.219 194.021 C 196.750 194.138,195.672 195.010,194.524 196.205 C 192.972 197.818,192.504 198.160,192.049 198.015 C 191.622 197.880,191.204 198.098,190.314 198.919 C 189.668 199.513,188.898 200.000,188.603 200.000 C 188.307 200.000,187.932 200.160,187.770 200.356 C 187.019 201.260,185.029 202.007,184.672 201.519 C 184.274 200.975,183.471 201.181,183.459 201.829 C 183.452 202.201,183.407 202.192,183.162 201.770 C 183.003 201.497,182.677 201.068,182.437 200.817 C 181.505 199.844,180.544 198.674,179.952 197.791 C 179.612 197.283,178.844 196.223,178.245 195.434 C 171.593 186.667,158.829 163.997,159.927 162.900 C 160.054 162.773,170.592 162.638,183.345 162.600 C 196.099 162.562,209.953 162.515,214.133 162.497 C 218.313 162.478,221.380 162.539,220.948 162.632 M74.164 165.867 C 74.152 166.233,74.258 166.713,74.400 166.933 C 74.729 167.443,74.729 166.894,74.400 165.867 L 74.186 165.200 74.164 165.867 M325.224 167.622 C 316.821 199.945,293.937 229.627,264.596 246.261 C 263.090 247.115,261.911 247.866,261.976 247.931 C 262.137 248.093,269.379 243.788,272.507 241.670 C 282.040 235.216,291.417 226.882,298.541 218.533 C 299.417 217.507,300.197 216.607,300.275 216.533 C 305.799 211.334,316.839 192.295,321.612 179.733 C 323.676 174.303,326.007 166.689,325.798 166.061 C 325.746 165.905,325.488 166.607,325.224 167.622 M74.819 168.400 C 74.909 168.987,75.089 169.647,75.220 169.867 C 75.511 170.357,75.228 168.650,74.888 167.867 C 74.735 167.512,74.711 167.691,74.819 168.400 M75.489 170.800 C 75.481 171.093,75.591 171.513,75.733 171.733 C 76.076 172.263,76.076 171.597,75.733 170.800 L 75.504 170.267 75.489 170.800 M76.020 172.533 C 76.022 172.753,76.194 173.293,76.401 173.733 L 76.778 174.533 76.620 173.733 C 76.421 172.732,76.014 171.916,76.020 172.533 M76.815 174.943 C 76.781 175.892,82.508 189.805,83.233 190.533 C 83.577 190.879,83.326 190.221,82.329 188.163 C 81.250 185.937,79.884 182.631,78.238 178.267 C 77.463 176.213,76.823 174.718,76.815 174.943 M83.468 191.011 C 83.466 191.298,84.515 193.333,84.664 193.333 C 84.729 193.333,84.705 193.123,84.609 192.867 C 84.363 192.211,83.469 190.756,83.468 191.011 M85.333 194.797 C 85.333 194.938,88.141 199.911,88.800 200.939 C 89.020 201.282,90.019 202.865,91.019 204.458 C 92.657 207.064,96.749 212.718,99.200 215.759 C 105.348 223.390,116.609 234.024,123.953 239.134 C 129.528 243.013,132.546 244.926,136.667 247.190 C 137.547 247.674,139.023 248.488,139.947 248.999 C 140.871 249.510,141.687 249.869,141.760 249.796 C 141.832 249.723,141.016 249.213,139.946 248.663 C 118.234 237.488,98.329 218.129,86.827 197.000 C 85.690 194.911,85.333 194.385,85.333 194.797 M184.533 202.267 C 184.533 202.633,184.413 202.933,184.267 202.933 C 184.120 202.933,184.000 202.633,184.000 202.267 C 184.000 201.900,184.120 201.600,184.267 201.600 C 184.413 201.600,184.533 201.900,184.533 202.267 M256.667 250.414 C 254.613 251.423,251.395 252.880,249.515 253.652 C 247.634 254.423,246.209 255.092,246.346 255.138 C 246.847 255.305,259.662 249.512,260.380 248.793 C 260.773 248.400,260.679 248.441,256.667 250.414 M142.518 250.280 C 143.091 250.708,143.579 250.797,143.353 250.432 C 143.274 250.303,142.936 250.129,142.604 250.045 C 142.021 249.899,142.018 249.907,142.518 250.280 M143.818 250.840 C 144.156 251.178,149.142 253.347,149.275 253.214 C 149.349 253.140,149.182 252.997,148.905 252.896 C 148.627 252.795,147.393 252.252,146.163 251.689 C 143.937 250.672,143.487 250.509,143.818 250.840 M151.080 254.103 C 151.219 254.234,151.633 254.419,152.000 254.514 L 152.667 254.689 152.000 254.287 C 151.257 253.840,150.673 253.723,151.080 254.103 M153.733 255.154 C 156.133 256.278,165.668 259.314,166.210 259.126 C 166.388 259.064,166.130 258.923,165.638 258.812 C 164.259 258.503,158.530 256.673,156.000 255.734 C 153.289 254.728,152.261 254.465,153.733 255.154 M243.733 255.892 C 241.440 256.757,236.542 258.278,233.067 259.205 C 231.527 259.616,230.499 259.962,230.783 259.976 C 231.965 260.031,245.006 256.058,245.720 255.425 C 246.127 255.063,245.608 255.186,243.733 255.892 M166.933 259.431 C 167.153 259.564,167.873 259.747,168.533 259.838 C 169.303 259.943,169.542 259.920,169.200 259.772 C 168.410 259.432,166.446 259.136,166.933 259.431 M170.267 260.267 C 170.560 260.393,171.100 260.492,171.467 260.488 L 172.133 260.480 171.467 260.267 C 171.100 260.149,170.560 260.050,170.267 260.045 L 169.733 260.037 170.267 260.267 M228.533 260.267 L 227.867 260.480 228.533 260.488 C 228.900 260.492,229.440 260.393,229.733 260.267 L 230.267 260.037 229.733 260.045 C 229.440 260.050,228.900 260.149,228.533 260.267 M173.467 260.926 C 174.200 261.122,175.100 261.283,175.467 261.285 L 176.133 261.287 175.461 261.083 C 175.092 260.971,174.192 260.810,173.461 260.725 L 172.133 260.571 173.467 260.926 M225.882 260.824 C 225.231 260.952,224.571 261.118,224.416 261.195 C 223.952 261.421,226.689 261.043,227.302 260.795 C 228.009 260.510,227.425 260.521,225.882 260.824 M176.800 261.600 C 177.167 261.717,177.827 261.811,178.267 261.809 L 179.067 261.804 178.267 261.600 C 177.827 261.488,177.167 261.394,176.800 261.391 L 176.133 261.386 176.800 261.600 M222.000 261.600 L 221.200 261.804 222.000 261.809 C 222.440 261.811,223.100 261.717,223.467 261.600 L 224.133 261.386 223.467 261.391 C 223.100 261.394,222.440 261.488,222.000 261.600 M179.776 262.113 C 180.166 262.238,181.366 262.409,182.443 262.492 C 183.832 262.598,184.090 262.577,183.333 262.420 C 181.699 262.080,178.929 261.840,179.776 262.113 M217.600 262.285 L 215.600 262.635 217.665 262.495 C 218.801 262.418,220.061 262.255,220.465 262.134 L 221.200 261.913 220.400 261.924 C 219.960 261.930,218.700 262.093,217.600 262.285 M185.733 262.946 C 186.467 263.060,187.847 263.145,188.800 263.136 L 190.533 263.119 188.800 262.924 C 187.847 262.817,186.467 262.731,185.733 262.733 L 184.400 262.738 185.733 262.946 M211.200 262.933 L 209.733 263.113 211.600 263.141 C 212.627 263.157,213.947 263.070,214.533 262.949 C 215.934 262.659,213.529 262.648,211.200 262.933 M192.800 263.498 C 193.900 263.589,197.140 263.664,200.000 263.664 C 202.860 263.664,206.100 263.589,207.200 263.498 C 208.300 263.408,205.060 263.333,200.000 263.333 C 194.940 263.333,191.700 263.408,192.800 263.498 " stroke="none" fill="#8d8d8d" fill-rule="evenodd"></path></g></svg>